<svg width="76" height="48" viewBox="0 0 76 48" fill="none" xmlns="http://www.w3.org/2000/svg">
<path d="M42.6691 24.6695L45.6711 22.9474L43.9954 20.0621H59.7546L51.8776 33.6375L50.2019 30.7472L47.2 32.4743L51.8776 40.531L65.7586 16.6129H37.9915L42.6691 24.6695Z" fill="white"/>
<path d="M1.51705 22.1608H6.06818L10.875 33.8881H11.0795L15.8864 22.1608H20.4375V39.6154H16.858V28.2546H16.7131L12.196 39.5302H9.75852L5.24148 28.212H5.09659V39.6154H1.51705V22.1608ZM38.8786 28.2716H35.1456C35.0774 27.7887 34.9382 27.3597 34.728 26.9847C34.5178 26.604 34.2479 26.2802 33.9183 26.0131C33.5888 25.7461 33.2081 25.5415 32.7763 25.3995C32.3501 25.2574 31.8871 25.1864 31.3871 25.1864C30.4837 25.1864 29.6967 25.4108 29.0263 25.8597C28.3558 26.3029 27.8359 26.9506 27.4666 27.8029C27.0973 28.6495 26.9126 29.6779 26.9126 30.8881C26.9126 32.1324 27.0973 33.1779 27.4666 34.0245C27.8416 34.8711 28.3643 35.5103 29.0348 35.9421C29.7053 36.3739 30.4808 36.5898 31.3615 36.5898C31.8558 36.5898 32.3132 36.5245 32.7337 36.3938C33.1598 36.2631 33.5376 36.0728 33.8672 35.8228C34.1967 35.5671 34.4695 35.2574 34.6854 34.8938C34.907 34.5302 35.0604 34.1154 35.1456 33.6495L38.8786 33.6665C38.782 34.4677 38.5405 35.2404 38.1541 35.9847C37.7734 36.7233 37.2592 37.3853 36.6115 37.9705C35.9695 38.55 35.2024 39.0103 34.3104 39.3512C33.424 39.6864 32.4212 39.854 31.3018 39.854C29.745 39.854 28.353 39.5018 27.1257 38.7972C25.9041 38.0927 24.9382 37.0728 24.228 35.7375C23.5234 34.4023 23.1712 32.7858 23.1712 30.8881C23.1712 28.9847 23.5291 27.3654 24.245 26.0302C24.9609 24.6949 25.9325 23.6779 27.1598 22.979C28.3871 22.2745 29.7678 21.9222 31.3018 21.9222C32.3132 21.9222 33.2507 22.0642 34.1143 22.3483C34.9837 22.6324 35.7536 23.0472 36.424 23.5927C37.0945 24.1324 37.6399 24.7944 38.0604 25.5785C38.4865 26.3625 38.7592 27.2603 38.8786 28.2716Z" fill="white"/>
</svg>
