<svg width="394" height="99" viewBox="0 0 394 99" fill="none" xmlns="http://www.w3.org/2000/svg">
<g clip-path="url(#clip0_6_432)">
<path d="M16.9954 94.8704C22.0838 92.6381 27.5848 91.7452 32.8107 90.8523C35.8362 90.4059 38.7242 90.1826 41.7498 89.9594C46.013 89.513 50.2762 89.2897 54.677 89.2897C62.9285 89.0665 71.0424 88.8433 79.2938 88.8433C95.6592 88.8433 112.025 88.6201 128.527 87.2807C145.58 85.9414 162.496 84.602 179.549 83.2627C195.639 81.9233 211.729 80.584 227.957 79.6911C244.048 78.575 260.275 77.6821 276.366 76.1195C292.869 74.3337 309.371 73.4408 325.874 72.7711C333.713 72.3247 341.552 71.8782 349.391 70.5389C353.517 69.8692 357.505 68.9763 361.631 68.0834C365.619 67.1905 369.607 66.7441 373.595 66.0744C377.308 65.4047 380.884 65.628 384.597 66.0744C387.21 65.628 389.273 63.3957 390.648 59.6009C391.336 57.1454 392.161 54.9132 392.849 52.4577C394.224 46.2074 394.911 39.7339 394.774 33.0372C394.774 26.3405 394.224 19.867 392.849 13.6167C392.161 11.1612 391.336 8.92897 390.648 6.47351C389.273 2.67869 387.348 0.669673 384.597 0C382.534 0.223224 380.609 0.669673 378.546 0.892897C376.758 1.11612 374.833 1.11612 373.045 1.11612C369.057 1.11612 365.206 1.33935 361.218 1.56257C352.967 2.00902 344.853 2.90192 336.601 3.34837C320.648 4.01804 304.696 4.24126 288.88 5.80383C280.354 6.69673 271.827 7.58963 263.301 8.2593C255.6 8.92897 247.761 9.37542 240.059 9.82187C223.557 10.7148 207.054 12.0541 190.551 13.3935C174.323 14.7328 157.958 16.0722 141.73 17.4115C132.791 18.0812 123.714 18.9741 114.775 19.6437C106.661 20.3134 98.6847 20.3134 90.5708 20.5366C74.0679 20.7599 57.565 20.9831 41.0621 22.5457C36.9364 22.9921 32.9482 23.4386 28.96 24.3315C25.6594 25.0011 22.3589 25.894 19.1958 27.0101C16.7204 27.903 14.245 29.2424 11.907 30.5817C10.5318 31.2514 9.15657 32.5908 7.91885 33.9301C5.44342 37.0552 3.79313 41.0733 2.83046 45.9842C0.630081 55.3596 0.355033 66.5209 1.3177 76.3427C1.8678 82.1466 3.10551 87.7272 5.03085 92.6381C5.99352 94.2007 6.95619 95.7632 7.91885 97.3258C10.1192 99.5581 12.3196 99.5581 14.3825 97.3258C14.9326 96.4329 16.0328 95.54 16.9954 94.8704Z" fill="#5CF5FF"/>
</g>
<defs>
<clipPath id="clip0_6_432">
<rect width="394" height="99" fill="white"/>
</clipPath>
</defs>
</svg>
