<svg width="80" height="52" viewBox="0 0 80 52" fill="none" xmlns="http://www.w3.org/2000/svg">
<path d="M44.6032 26.7253L47.7412 24.8597L45.9896 21.734H62.4631L54.229 36.4406L52.4774 33.3094L49.3394 35.1805L54.229 43.9086L68.7392 17.9973H39.7135L44.6032 26.7253Z" fill="white"/>
<path d="M1.51705 23.5455H6.06818L10.875 35.2727H11.0795L15.8864 23.5455H20.4375V41H16.858V29.6392H16.7131L12.196 40.9148H9.75852L5.24148 29.5966H5.09659V41H1.51705V23.5455ZM38.8786 29.6562H35.1456C35.0774 29.1733 34.9382 28.7443 34.728 28.3693C34.5178 27.9886 34.2479 27.6648 33.9183 27.3977C33.5888 27.1307 33.2081 26.9261 32.7763 26.7841C32.3501 26.642 31.8871 26.571 31.3871 26.571C30.4837 26.571 29.6967 26.7955 29.0263 27.2443C28.3558 27.6875 27.8359 28.3352 27.4666 29.1875C27.0973 30.0341 26.9126 31.0625 26.9126 32.2727C26.9126 33.517 27.0973 34.5625 27.4666 35.4091C27.8416 36.2557 28.3643 36.8949 29.0348 37.3267C29.7053 37.7585 30.4808 37.9744 31.3615 37.9744C31.8558 37.9744 32.3132 37.9091 32.7337 37.7784C33.1598 37.6477 33.5376 37.4574 33.8672 37.2074C34.1967 36.9517 34.4695 36.642 34.6854 36.2784C34.907 35.9148 35.0604 35.5 35.1456 35.0341L38.8786 35.0511C38.782 35.8523 38.5405 36.625 38.1541 37.3693C37.7734 38.108 37.2592 38.7699 36.6115 39.3551C35.9695 39.9347 35.2024 40.3949 34.3104 40.7358C33.424 41.071 32.4212 41.2386 31.3018 41.2386C29.745 41.2386 28.353 40.8864 27.1257 40.1818C25.9041 39.4773 24.9382 38.4574 24.228 37.1222C23.5234 35.7869 23.1712 34.1705 23.1712 32.2727C23.1712 30.3693 23.5291 28.75 24.245 27.4148C24.9609 26.0795 25.9325 25.0625 27.1598 24.3636C28.3871 23.6591 29.7678 23.3068 31.3018 23.3068C32.3132 23.3068 33.2507 23.4489 34.1143 23.733C34.9837 24.017 35.7536 24.4318 36.424 24.9773C37.0945 25.517 37.6399 26.179 38.0604 26.9631C38.4865 27.7472 38.7592 28.6449 38.8786 29.6562Z" fill="white"/>
</svg>
