<svg width="142" height="128" viewBox="0 0 142 128" fill="none" xmlns="http://www.w3.org/2000/svg">
<path d="M53.3228 65.3382L61.2313 60.7772L56.8169 53.1354H98.3331L77.5817 89.0903L73.1673 81.4352L65.2589 86.0096L77.5817 107.348L114.15 44H41L53.3228 65.3382Z" fill="white"/>
<path d="M2.27557 71.8182H9.10227L16.3125 89.4091H16.6193L23.8295 71.8182H30.6562V98H25.2869V80.9588H25.0696L18.294 97.8722H14.6378L7.86222 80.8949H7.64489V98H2.27557V71.8182ZM58.3178 80.9844H52.7184C52.6161 80.2599 52.4073 79.6165 52.092 79.054C51.7766 78.483 51.3718 77.9972 50.8775 77.5966C50.3832 77.196 49.8121 76.8892 49.1644 76.6761C48.5252 76.4631 47.8306 76.3565 47.0806 76.3565C45.7255 76.3565 44.5451 76.6932 43.5394 77.3665C42.5337 78.0312 41.7539 79.0028 41.1999 80.2812C40.646 81.5511 40.369 83.0937 40.369 84.9091C40.369 86.7756 40.646 88.3437 41.1999 89.6136C41.7624 90.8835 42.5465 91.8423 43.5522 92.4901C44.5579 93.1378 45.7212 93.4616 47.0423 93.4616C47.7837 93.4616 48.4698 93.3636 49.1005 93.1676C49.7397 92.9716 50.3065 92.6861 50.8008 92.3111C51.2951 91.9276 51.7042 91.4631 52.0281 90.9176C52.3604 90.3722 52.5906 89.75 52.7184 89.0511L58.3178 89.0767C58.1729 90.2784 57.8107 91.4375 57.2312 92.554C56.6602 93.6619 55.8889 94.6548 54.9173 95.5327C53.9542 96.402 52.8036 97.0923 51.4656 97.6037C50.136 98.1065 48.6317 98.358 46.9528 98.358C44.6175 98.358 42.5295 97.8295 40.6886 96.7727C38.8562 95.7159 37.4073 94.1861 36.342 92.1832C35.2852 90.1804 34.7567 87.7557 34.7567 84.9091C34.7567 82.054 35.2937 79.625 36.3675 77.6222C37.4414 75.6193 38.8988 74.0937 40.7397 73.0455C42.5806 71.9886 44.6516 71.4602 46.9528 71.4602C48.4698 71.4602 49.8761 71.6733 51.1715 72.0994C52.4755 72.5256 53.6303 73.1477 54.636 73.9659C55.6417 74.7756 56.4599 75.7685 57.0906 76.9446C57.7298 78.1207 58.1388 79.4673 58.3178 80.9844Z" fill="white"/>
</svg>
